<?xml version="1.0" standalone="no"?>
<!DOCTYPE svg PUBLIC "-//W3C//DTD SVG 20010904//EN"
 "http://www.w3.org/TR/2001/REC-SVG-20010904/DTD/svg10.dtd">
<svg version="1.0" xmlns="http://www.w3.org/2000/svg"
 width="500.000000pt" height="500.000000pt" viewBox="0 0 500.000000 500.000000"
 preserveAspectRatio="xMidYMid meet">
<metadata>
Created by potrace 1.11, written by Peter Selinger 2001-2013
</metadata>
<g transform="translate(0.000000,500.000000) scale(0.100000,-0.100000)"
fill="#000000" stroke="none">
<path d="M2328 4725 c-2 -2 -34 -6 -73 -10 -38 -3 -77 -8 -85 -10 -8 -2 -35
-7 -60 -10 -159 -22 -422 -109 -610 -203 -117 -58 -338 -200 -420 -269 -368
-312 -626 -719 -741 -1167 -25 -95 -22 -85 -45 -217 -30 -170 -26 -556 7 -724
6 -27 13 -61 15 -75 13 -68 47 -188 80 -281 200 -577 655 -1063 1219 -1304
158 -68 378 -133 506 -151 24 -3 54 -7 67 -9 110 -15 170 -19 322 -18 613 2
1177 245 1600 690 588 619 771 1518 471 2317 -40 105 -120 274 -165 345 -14
22 -26 43 -26 46 0 2 -28 44 -62 92 -302 429 -721 731 -1209 871 -101 30 -232
58 -314 68 -22 3 -51 7 -65 10 -26 6 -407 14 -412 9z m402 -186 c106 -12 106
-12 213 -35 42 -9 77 -21 77 -26 0 -5 -7 -38 -16 -74 -14 -54 -24 -71 -58
-100 -62 -53 -161 -106 -251 -132 -180 -53 -405 -19 -558 86 -78 53 -103 85
-121 157 -21 83 -21 81 17 88 17 3 70 13 117 22 47 8 128 18 180 21 52 4 96 8
98 9 6 5 215 -6 302 -16z m-752 -134 c19 -71 20 -78 5 -123 -9 -26 -19 -52
-24 -57 -20 -27 -28 -64 -15 -74 11 -9 20 1 43 49 l29 60 17 -62 c10 -35 22
-76 27 -93 5 -16 14 -48 20 -70 6 -22 22 -53 35 -70 27 -33 30 -28 14 25 -20
67 -69 255 -69 267 0 7 22 -3 49 -22 230 -165 571 -163 815 4 l45 31 -19 -67
c-10 -38 -35 -131 -55 -208 -35 -132 -39 -142 -78 -178 -103 -96 -293 -135
-441 -92 -27 8 -52 15 -55 15 -14 0 64 -59 83 -62 64 -12 167 -7 240 12 74 19
104 32 170 75 19 13 25 14 21 4 -2 -8 -29 -106 -59 -218 -30 -112 -60 -207
-67 -212 -9 -5 -4 -18 21 -46 72 -84 154 -164 179 -178 30 -15 118 -33 144
-29 25 3 21 -6 -20 -48 -54 -55 -30 -79 25 -25 21 20 40 37 43 37 3 0 6 -12 6
-27 1 -112 60 -219 150 -275 20 -12 31 -24 25 -26 -19 -6 -14 -19 17 -51 l29
-29 13 25 c17 31 29 36 209 84 80 21 168 44 197 52 l51 15 -29 -49 c-58 -93
-73 -152 -73 -279 0 -126 18 -192 75 -277 27 -41 27 -43 8 -43 -20 0 -19 -2 8
-34 21 -25 34 -33 52 -30 21 3 87 -13 364 -86 38 -10 71 -20 73 -22 2 -3 -20
-15 -49 -27 -76 -34 -177 -108 -171 -126 9 -22 16 -19 70 23 65 50 107 72 172
92 51 16 60 16 113 1 33 -8 59 -18 59 -22 0 -43 -158 -412 -212 -494 -121
-184 -245 -343 -288 -370 -18 -11 -98 80 -107 124 -13 61 -7 222 11 291 20 77
57 157 100 220 51 72 51 72 25 68 -29 -4 -46 -24 -92 -108 -43 -79 -74 -173
-83 -249 -6 -53 -8 -165 -4 -186 1 -5 2 -14 1 -19 0 -5 -70 61 -155 146 -162
163 -166 168 -168 263 -1 22 2 65 6 96 5 47 4 56 -9 56 -21 0 -33 -52 -34
-152 l-1 -60 -100 102 c-54 56 -105 103 -112 104 -42 5 -32 -12 72 -116 63
-63 111 -115 107 -116 -4 0 -38 0 -77 -1 -109 0 -188 -24 -163 -49 7 -7 22 -7
51 0 54 15 158 19 207 9 35 -7 64 -31 195 -163 l155 -156 -83 4 c-68 3 -132
-2 -207 -17 -43 -8 -145 -52 -145 -62 0 -23 18 -24 66 -3 109 46 301 62 388
33 50 -17 120 -84 111 -105 -9 -20 -135 -126 -240 -201 -156 -111 -330 -202
-507 -263 -118 -41 -126 -42 -130 -12 -5 35 -33 28 -32 -9 2 -30 0 -31 -70
-47 -150 -35 -257 -46 -451 -47 -157 -1 -274 11 -430 44 -67 14 -67 14 -44
101 23 87 190 193 363 231 52 12 182 11 248 -2 74 -14 156 -43 216 -76 l32
-18 -15 30 c-19 37 -71 63 -181 90 -141 36 -291 27 -430 -26 -65 -24 -172 -86
-186 -108 -15 -22 -8 25 16 112 13 48 36 134 51 192 21 79 36 113 58 137 35
37 155 99 212 109 51 9 150 10 192 1 32 -6 32 -6 20 19 l-11 26 -111 -4 c-119
-6 -183 -24 -267 -77 l-46 -29 19 61 c26 84 25 96 -6 67 -14 -13 -25 -28 -25
-34 0 -6 -5 -29 -11 -51 l-12 -40 -9 28 c-5 15 -14 27 -18 27 -19 0 -20 -21
-5 -68 16 -49 16 -50 -25 -203 -23 -85 -44 -165 -46 -177 -3 -13 -11 -38 -18
-55 l-12 -32 -39 78 c-46 93 -142 203 -164 188 -12 -8 -7 -18 27 -55 60 -65
117 -157 140 -224 18 -53 18 -61 4 -117 -8 -33 -18 -64 -22 -68 -21 -23 -375
125 -530 220 -94 58 -239 166 -308 230 l-54 48 54 52 c46 42 64 53 114 63 120
25 287 -1 413 -64 48 -25 51 -25 51 -7 0 24 -28 42 -118 75 -89 32 -150 41
-266 39 l-89 -2 154 155 c164 164 166 166 271 168 39 1 48 4 48 19 0 14 -9 17
-57 17 l-57 0 57 58 c38 38 57 66 57 82 0 22 -9 16 -72 -48 l-73 -72 3 75 c8
182 -89 354 -259 457 -37 22 -56 39 -48 42 80 27 408 107 426 103 22 -4 23 -2
23 52 l0 56 -22 -32 c-24 -33 -4 -26 -326 -114 -63 -17 -116 -28 -120 -25 -3
3 2 14 11 24 25 27 66 123 78 183 11 52 13 152 5 194 -13 65 -32 117 -62 173
-19 34 -34 65 -34 67 0 3 11 0 25 -5 14 -5 36 -12 48 -14 12 -3 96 -25 186
-50 140 -38 168 -49 187 -73 l23 -28 1 53 c0 49 -2 53 -20 47 -11 -3 -114 19
-235 51 l-216 57 52 25 c29 14 82 54 119 91 106 105 147 196 157 349 l6 93 69
-68 c61 -60 68 -65 68 -43 0 17 -19 44 -56 83 -30 31 -49 58 -42 58 7 1 32 1
56 2 34 0 42 3 42 18 0 16 -8 18 -57 18 -32 0 -71 4 -86 10 -30 12 -337 310
-321 312 5 1 13 1 18 0 25 -5 165 -3 191 2 17 4 46 9 65 12 19 4 69 20 110 38
60 26 76 37 78 56 2 13 0 21 -5 19 -141 -70 -209 -88 -334 -93 -129 -4 -184
14 -249 84 l-48 52 46 43 c166 152 394 299 589 378 90 36 233 86 249 87 7 1
21 -33 32 -74z m1188 36 c280 -101 524 -248 724 -435 28 -26 50 -49 50 -52 0
-13 -90 -95 -116 -105 -16 -6 -75 -12 -132 -14 -220 -5 -420 92 -557 270 -48
63 -93 154 -101 203 -7 45 22 162 41 162 6 0 47 -13 91 -29z m-132 -237 c65
-142 187 -265 331 -334 109 -51 208 -72 329 -68 53 2 96 1 96 -2 0 -15 -299
-301 -325 -310 -39 -15 -146 -15 -210 0 -157 36 -300 162 -351 309 -14 40 -14
37 61 316 27 101 33 124 34 138 2 16 11 4 35 -49z m-1876 -422 c34 -152 -11
-367 -106 -504 -92 -131 -248 -246 -358 -263 -39 -7 -148 15 -165 32 -5 5 -2
33 8 64 9 29 18 59 19 64 7 29 88 212 130 290 78 149 193 313 293 418 l55 57
56 -55 c44 -44 59 -67 68 -103z m2858 95 c199 -218 351 -483 440 -764 l22 -73
-56 -17 c-72 -21 -88 -20 -166 16 -192 87 -326 246 -382 451 -22 83 -25 260
-5 310 13 33 87 120 102 120 3 0 24 -19 45 -43z m-2498 -452 c39 -192 -76
-423 -255 -514 -93 -46 -74 -48 -338 25 -33 9 -67 18 -75 20 -8 2 -36 9 -62
16 l-48 13 88 44 c158 81 290 240 345 416 28 87 39 210 27 289 l-7 48 158
-158 c136 -135 160 -164 167 -199z m1476 169 c96 -96 234 -152 369 -150 37 1
67 -1 67 -4 0 -3 -70 -75 -155 -160 l-155 -155 -73 0 c-91 1 -151 27 -216 94
-80 82 -80 94 -16 335 30 114 55 210 55 214 1 4 15 -20 32 -53 17 -33 58 -87
92 -121z m829 144 c-14 -84 -2 -207 28 -300 62 -187 178 -322 362 -419 39 -21
69 -39 64 -39 -6 0 -140 -35 -351 -90 -60 -16 -74 -17 -107 -6 -109 38 -214
131 -267 239 -33 65 -63 193 -56 239 15 106 8 95 167 256 83 83 154 152 158
152 4 0 5 -15 2 -32z m-359 -390 c-4 -172 77 -331 218 -431 35 -24 74 -48 88
-52 23 -7 23 -8 5 -15 -11 -4 -110 -31 -221 -60 -198 -52 -201 -52 -236 -36
-60 29 -115 84 -144 143 -22 45 -28 70 -28 129 l-1 74 160 160 c88 88 160 160
160 160 0 0 -1 -33 -1 -72z m-2785 -402 c53 -48 140 -205 156 -281 38 -188 23
-323 -54 -480 -58 -117 -101 -161 -181 -185 -36 -11 -70 -20 -76 -20 -18 0
-52 150 -71 317 -14 118 -7 407 12 503 3 14 10 52 15 85 6 33 15 74 21 92 l10
31 72 -20 c40 -11 83 -30 96 -42z m3820 7 c38 -174 46 -258 45 -468 0 -166
-21 -357 -48 -449 -11 -38 -15 -41 -47 -40 -57 2 -105 29 -143 81 -49 66 -101
175 -121 253 -17 64 -23 217 -12 273 24 119 81 241 146 317 29 34 52 49 92 61
76 24 76 24 88 -28z m-3546 -63 c215 -58 225 -64 274 -148 59 -100 79 -214 60
-337 -11 -73 -54 -169 -97 -219 -35 -39 -50 -45 -266 -101 -72 -19 -143 -39
-157 -44 -34 -13 -35 0 -3 42 140 185 166 482 62 709 -14 30 -41 78 -62 107
-20 30 -30 52 -23 49 8 -3 103 -29 212 -58z m3309 18 c-86 -125 -122 -236
-128 -388 -6 -167 28 -292 112 -417 24 -36 44 -67 44 -69 0 -2 -10 0 -22 5
-13 5 -79 23 -148 41 -243 62 -256 67 -289 107 -35 43 -74 121 -92 184 -11 44
-15 173 -5 217 10 44 46 132 70 169 44 70 60 78 266 133 107 28 197 53 199 56
2 2 8 4 13 4 5 0 -4 -19 -20 -42z m-3013 -829 c135 -68 236 -197 267 -344 11
-56 10 -150 -3 -190 -10 -31 -50 -77 -163 -190 l-149 -149 2 90 c2 108 -6 169
-33 252 -60 184 -203 344 -379 426 l-50 23 97 26 c53 15 144 40 202 56 58 16
114 30 126 30 11 1 49 -13 83 -30z m-469 -142 c88 -41 113 -60 195 -142 122
-123 186 -274 191 -452 4 -132 -10 -181 -70 -239 -24 -24 -49 -44 -54 -44 -15
0 -126 127 -203 232 -115 157 -222 361 -283 544 l-34 99 67 21 c77 25 103 22
191 -19z"/>
<path d="M1771 2656 c0 -868 2 -1583 5 -1587 4 -7 281 226 324 271 3 3 46 41
95 84 142 125 225 198 269 238 30 26 43 33 48 24 4 -7 71 -150 149 -317 78
-167 157 -338 176 -379 20 -41 51 -109 70 -150 18 -41 46 -101 60 -132 15 -32
32 -58 38 -58 11 0 347 140 386 160 17 10 1 52 -121 315 -10 22 -60 132 -110
245 -51 113 -100 223 -110 245 -79 175 -100 223 -100 227 0 3 223 5 496 6 273
0 497 2 499 4 2 2 -17 26 -43 54 -61 65 -234 255 -292 318 -25 27 -52 57 -60
66 -8 9 -58 63 -110 120 -148 163 -193 212 -215 235 -34 37 -186 203 -204 224
-10 12 -60 66 -111 121 -51 55 -100 108 -109 119 -9 10 -53 58 -97 107 -45 49
-93 101 -105 115 -13 14 -64 70 -114 124 -49 54 -97 106 -105 115 -8 9 -52 57
-97 106 -45 49 -90 99 -101 111 -10 13 -46 51 -78 86 -32 35 -102 110 -154
167 -52 57 -114 124 -137 149 l-42 46 0 -1579z m1118 -142 c94 -102 247 -268
266 -288 51 -54 66 -51 -228 -54 -149 -2 -276 -6 -281 -9 -5 -4 -7 0 -4 8 2 8
33 117 68 242 l64 229 34 -39 c19 -21 55 -61 81 -89z"/>
<path d="M2814 2470 c6 -39 6 -40 -19 -34 -20 5 -25 3 -25 -14 0 -12 9 -22 23
-26 20 -6 20 -8 6 -19 -9 -6 -24 -28 -34 -47 -10 -19 -22 -38 -27 -41 -4 -3
-12 -19 -17 -35 -8 -30 -8 -30 35 -30 40 0 43 2 37 21 -14 44 5 90 50 120 21
13 29 13 70 1 44 -13 45 -13 34 5 -7 11 -27 26 -45 35 -21 10 -39 30 -53 60
-27 56 -44 58 -35 4z"/>
</g>
</svg>
